<svg class="t-sociallinks__svg" xmlns="http://www.w3.org/2000/svg" width="30" height="30"><path d="M15 11a4 4 0 1 0 0 8 4 4 0 0 0 0-8zm0 6.6a2.6 2.6 0 0 1-2.6-2.6 2.6 2.6 0 0 1 2.6-2.6 2.6 2.6 0 0 1 2.6 2.6 2.6 2.6 0 0 1-2.6 2.6zm4.4-8a1 1 0 0 0-1 .9c0 .5.5.9 1 .9a1 1 0 0 0 1-1 1 1 0 0 0-1-.8z" fill="#259da8"/><path d="M15 .1a14.8 14.8 0 1 0 0 29.7A14.8 14.8 0 0 0 15 .2zm7.7 18.2c0 2.4-2 4.4-4.4 4.4h-6.6c-2.4 0-4.4-2-4.4-4.4v-6.6c0-2.4 2-4.4 4.5-4.4h6.4c2.5 0 4.5 2 4.5 4.4v6.6z" fill="#259da8"/></svg>